# xmcd
#
# Track frame offsets: 
#        150
#        16244
#        31189
#        45329
#        58764
#        72900
#        87300
#        107986
#        125055
#        141833
#        157337
#        175170
#        193226
#
# Disc length: 3049 seconds
#
# Revision: 0
# Processed by: cddbd v1.5.2PL0 Copyright (c) Steve Scherf et al.
# Submitted via: ExactAudioCopyFreeDBPlugin 1.0
#
DISCID=ba0be70d
DTITLE=Skull Full Of Blues - Lucky 13
DYEAR=2012
DGENRE=Blues
TTITLE0=Blue Skies, Two Wheels
TTITLE1=Gravedigger
TTITLE2=Novocaine Blues
TTITLE3=Martini
TTITLE4=Hard Rockin'
TTITLE5=Nowhere To Go
TTITLE6=Whiskey Is My Friend
TTITLE7=Rockerarm
TTITLE8=Bootlegger's Son
TTITLE9=Tear Standing In My Eye
TTITLE10=Twister
TTITLE11=Born Loser
TTITLE12=Shoes
EXTD=
EXTT0=
EXTT1=
EXTT2=
EXTT3=
EXTT4=
EXTT5=
EXTT6=
EXTT7=
EXTT8=
EXTT9=
EXTT10=
EXTT11=
EXTT12=
PLAYORDER=
